ISO-10303-21;
HEADER;
/* Generated by software containing ST-Developer
 * from STEP Tools, Inc. (www.steptools.com) 
 */

FILE_DESCRIPTION(
/* description */ ('KiCad electronic assembly'),
/* implementation_level */ '2;1');

FILE_NAME(
/* name */ 'Drink! cover.step',
/* time_stamp */ '2026-08-20T17:32:37-07:00',
/* author */ (''),
/* organization */ (''),
/* preprocessor_version */ 'ST-DEVELOPER v20.1',
/* originating_system */ 'Autodesk Translation Framework v15.8.0.0',
/* authorisation */ '');

FILE_SCHEMA (('AUTOMOTIVE_DESIGN { 1 0 10303 214 3 1 1 }'));
ENDSEC;

DATA;
#10=MECHANICAL_DESIGN_GEOMETRIC_PRESENTATION_REPRESENTATION('',(#13),#536);
#11=SHAPE_REPRESENTATION_RELATIONSHIP('SRR','None',#542,#12);
#12=ADVANCED_BREP_SHAPE_REPRESENTATION('',(#14),#535);
#13=STYLED_ITEM('',(#553),#14);
#14=MANIFOLD_SOLID_BREP('Body36',#278);
#15=FACE_BOUND('',#67,.T.);
#16=FACE_BOUND('',#69,.T.);
#17=FACE_BOUND('',#71,.T.);
#18=FACE_BOUND('',#74,.T.);
#19=FACE_BOUND('',#77,.T.);
#20=CONICAL_SURFACE('',#292,39.8535533905933,0.78539816339745);
#21=CONICAL_SURFACE('',#301,40.5606601717798,0.78539816339745);
#22=CIRCLE('',#284,40.5);
#23=CIRCLE('',#285,41.5);
#24=CIRCLE('',#288,40.5);
#25=CIRCLE('',#289,41.5);
#26=CIRCLE('',#293,39.2071067811865);
#27=CIRCLE('',#294,40.5);
#28=CIRCLE('',#296,40.5);
#29=CIRCLE('',#298,41.5);
#30=CIRCLE('',#300,41.5);
#31=CIRCLE('',#302,39.6213203435596);
#32=CIRCLE('',#304,34.);
#33=CIRCLE('',#306,34.);
#34=PLANE('',#281);
#35=PLANE('',#283);
#36=PLANE('',#287);
#37=PLANE('',#291);
#38=PLANE('',#297);
#39=PLANE('',#303);
#40=PLANE('',#307);
#41=FACE_OUTER_BOUND('',#57,.T.);
#42=FACE_OUTER_BOUND('',#58,.T.);
#43=FACE_OUTER_BOUND('',#59,.T.);
#44=FACE_OUTER_BOUND('',#60,.T.);
#45=FACE_OUTER_BOUND('',#61,.T.);
#46=FACE_OUTER_BOUND('',#62,.T.);
#47=FACE_OUTER_BOUND('',#63,.T.);
#48=FACE_OUTER_BOUND('',#64,.T.);
#49=FACE_OUTER_BOUND('',#65,.T.);
#50=FACE_OUTER_BOUND('',#66,.T.);
#51=FACE_OUTER_BOUND('',#68,.T.);
#52=FACE_OUTER_BOUND('',#70,.T.);
#53=FACE_OUTER_BOUND('',#72,.T.);
#54=FACE_OUTER_BOUND('',#73,.T.);
#55=FACE_OUTER_BOUND('',#75,.T.);
#56=FACE_OUTER_BOUND('',#76,.T.);
#57=EDGE_LOOP('',(#181,#182,#183,#184));
#58=EDGE_LOOP('',(#185,#186,#187,#188));
#59=EDGE_LOOP('',(#189,#190,#191,#192));
#60=EDGE_LOOP('',(#193,#194,#195,#196));
#61=EDGE_LOOP('',(#197,#198,#199,#200));
#62=EDGE_LOOP('',(#201,#202,#203,#204));
#63=EDGE_LOOP('',(#205,#206,#207,#208));
#64=EDGE_LOOP('',(#209,#210,#211,#212));
#65=EDGE_LOOP('',(#213,#214,#215,#216));
#66=EDGE_LOOP('',(#217,#218,#219,#220));
#67=EDGE_LOOP('',(#221,#222,#223,#224,#225,#226,#227,#228));
#68=EDGE_LOOP('',(#229));
#69=EDGE_LOOP('',(#230));
#70=EDGE_LOOP('',(#231,#232,#233,#234));
#71=EDGE_LOOP('',(#235,#236,#237,#238,#239,#240,#241,#242));
#72=EDGE_LOOP('',(#243,#244,#245,#246));
#73=EDGE_LOOP('',(#247));
#74=EDGE_LOOP('',(#248));
#75=EDGE_LOOP('',(#249,#250,#251,#252));
#76=EDGE_LOOP('',(#253));
#77=EDGE_LOOP('',(#254));
#78=LINE('',#398,#95);
#79=LINE('',#410,#96);
#80=LINE('',#414,#97);
#81=LINE('',#416,#98);
#82=LINE('',#418,#99);
#83=LINE('',#419,#100);
#84=LINE('',#433,#101);
#85=LINE('',#470,#102);
#86=LINE('',#476,#103);
#87=LINE('',#500,#104);
#88=LINE('',#502,#105);
#89=LINE('',#503,#106);
#90=LINE('',#508,#107);
#91=LINE('',#512,#108);
#92=LINE('',#520,#109);
#93=LINE('',#524,#110);
#94=LINE('',#530,#111);
#95=VECTOR('',#312,10.);
#96=VECTOR('',#313,10.);
#97=VECTOR('',#316,10.);
#98=VECTOR('',#317,10.);
#99=VECTOR('',#318,10.);
#100=VECTOR('',#319,10.);
#101=VECTOR('',#322,10.);
#102=VECTOR('',#331,10.);
#103=VECTOR('',#338,10.);
#104=VECTOR('',#341,10.);
#105=VECTOR('',#344,10.);
#106=VECTOR('',#345,10.);
#107=VECTOR('',#350,39.8535533905933);
#108=VECTOR('',#355,40.5);
#109=VECTOR('',#366,41.5);
#110=VECTOR('',#371,40.5606601717798);
#111=VECTOR('',#378,34.);
#112=B_SPLINE_CURVE_WITH_KNOTS('',3,(#387,#388,#389,#390,#391,#392,#393,
#394,#395,#396),.UNSPECIFIED.,.F.,.F.,(4,2,2,2,4),(0.,0.198057455804376,
0.396114911608753,0.595422225675671,0.79472953974259),.UNSPECIFIED.);
#113=B_SPLINE_CURVE_WITH_KNOTS('',3,(#400,#401,#402,#403,#404,#405,#406,
#407,#408,#409),.UNSPECIFIED.,.F.,.F.,(4,2,2,2,4),(-0.794550448853135,-0.595317841949774,
-0.396085235046414,-0.198042617523207,0.),.UNSPECIFIED.);
#114=B_SPLINE_CURVE_WITH_KNOTS('',3,(#422,#423,#424,#425,#426,#427,#428,
#429,#430,#431),.UNSPECIFIED.,.F.,.F.,(4,2,2,2,4),(0.791572167330714,0.991223203063152,
1.19087423879559,1.38893732451476,1.58700041023394),.UNSPECIFIED.);
#115=B_SPLINE_CURVE_WITH_KNOTS('',3,(#434,#435,#436,#437,#438,#439,#440,
#441,#442,#443),.UNSPECIFIED.,.F.,.F.,(4,2,2,2,4),(1.58676150303735,1.78480930979725,
1.98285711655715,2.18241661259419,2.38197610863122),.UNSPECIFIED.);
#116=B_SPLINE_CURVE_WITH_KNOTS('',3,(#449,#450,#451,#452,#453,#454,#455,
#456,#457,#458),.UNSPECIFIED.,.F.,.F.,(4,2,2,2,4),(1.58700041023394,1.78506349595311,
1.98312658167229,2.18277761740473,2.38242865313716),.UNSPECIFIED.);
#117=B_SPLINE_CURVE_WITH_KNOTS('',3,(#460,#461,#462,#463,#464,#465,#466,
#467,#468,#469),.UNSPECIFIED.,.F.,.F.,(4,2,2,2,4),(0.791546847805774,0.991106343842812,
1.19066583987985,1.38871364663975,1.58676145339965),.UNSPECIFIED.);
#118=B_SPLINE_CURVE_WITH_KNOTS('',3,(#479,#480,#481,#482,#483,#484,#485,
#486,#487,#488),.UNSPECIFIED.,.F.,.F.,(4,2,2,2,4),(-0.79472953974259,-0.595422225675672,
-0.396114911608753,-0.198057455804377,0.),.UNSPECIFIED.);
#119=B_SPLINE_CURVE_WITH_KNOTS('',3,(#490,#491,#492,#493,#494,#495,#496,
#497,#498,#499),.UNSPECIFIED.,.F.,.F.,(4,2,2,2,4),(0.,0.198042617523207,
0.396085235046414,0.595317841949775,0.794550448853135),.UNSPECIFIED.);
#120=VERTEX_POINT('',#385);
#121=VERTEX_POINT('',#386);
#122=VERTEX_POINT('',#397);
#123=VERTEX_POINT('',#399);
#124=VERTEX_POINT('',#412);
#125=VERTEX_POINT('',#413);
#126=VERTEX_POINT('',#415);
#127=VERTEX_POINT('',#417);
#128=VERTEX_POINT('',#421);
#129=VERTEX_POINT('',#432);
#130=VERTEX_POINT('',#448);
#131=VERTEX_POINT('',#459);
#132=VERTEX_POINT('',#472);
#133=VERTEX_POINT('',#474);
#134=VERTEX_POINT('',#478);
#135=VERTEX_POINT('',#489);
#136=VERTEX_POINT('',#505);
#137=VERTEX_POINT('',#507);
#138=VERTEX_POINT('',#511);
#139=VERTEX_POINT('',#515);
#140=VERTEX_POINT('',#518);
#141=VERTEX_POINT('',#522);
#142=VERTEX_POINT('',#526);
#143=VERTEX_POINT('',#529);
#144=EDGE_CURVE('',#120,#121,#112,.T.);
#145=EDGE_CURVE('',#122,#120,#78,.T.);
#146=EDGE_CURVE('',#123,#122,#113,.T.);
#147=EDGE_CURVE('',#123,#121,#79,.T.);
#148=EDGE_CURVE('',#124,#125,#80,.T.);
#149=EDGE_CURVE('',#126,#124,#81,.T.);
#150=EDGE_CURVE('',#127,#126,#82,.T.);
#151=EDGE_CURVE('',#127,#125,#83,.T.);
#152=EDGE_CURVE('',#128,#124,#114,.T.);
#153=EDGE_CURVE('',#129,#128,#84,.T.);
#154=EDGE_CURVE('',#126,#129,#115,.T.);
#155=EDGE_CURVE('',#121,#128,#22,.T.);
#156=EDGE_CURVE('',#129,#123,#23,.T.);
#157=EDGE_CURVE('',#125,#130,#116,.T.);
#158=EDGE_CURVE('',#131,#127,#117,.T.);
#159=EDGE_CURVE('',#131,#130,#85,.T.);
#160=EDGE_CURVE('',#130,#132,#24,.T.);
#161=EDGE_CURVE('',#133,#131,#25,.T.);
#162=EDGE_CURVE('',#133,#132,#86,.T.);
#163=EDGE_CURVE('',#132,#134,#118,.T.);
#164=EDGE_CURVE('',#135,#133,#119,.T.);
#165=EDGE_CURVE('',#135,#134,#87,.T.);
#166=EDGE_CURVE('',#134,#120,#88,.T.);
#167=EDGE_CURVE('',#122,#135,#89,.T.);
#168=EDGE_CURVE('',#136,#136,#26,.T.);
#169=EDGE_CURVE('',#136,#137,#90,.T.);
#170=EDGE_CURVE('',#137,#137,#27,.T.);
#171=EDGE_CURVE('',#137,#138,#91,.T.);
#172=EDGE_CURVE('',#138,#138,#28,.T.);
#173=EDGE_CURVE('',#139,#139,#29,.T.);
#174=EDGE_CURVE('',#140,#140,#30,.T.);
#175=EDGE_CURVE('',#140,#139,#92,.T.);
#176=EDGE_CURVE('',#141,#141,#31,.T.);
#177=EDGE_CURVE('',#141,#140,#93,.T.);
#178=EDGE_CURVE('',#142,#142,#32,.T.);
#179=EDGE_CURVE('',#142,#143,#94,.T.);
#180=EDGE_CURVE('',#143,#143,#33,.T.);
#181=ORIENTED_EDGE('',*,*,#144,.F.);
#182=ORIENTED_EDGE('',*,*,#145,.F.);
#183=ORIENTED_EDGE('',*,*,#146,.F.);
#184=ORIENTED_EDGE('',*,*,#147,.T.);
#185=ORIENTED_EDGE('',*,*,#148,.F.);
#186=ORIENTED_EDGE('',*,*,#149,.F.);
#187=ORIENTED_EDGE('',*,*,#150,.F.);
#188=ORIENTED_EDGE('',*,*,#151,.T.);
#189=ORIENTED_EDGE('',*,*,#152,.F.);
#190=ORIENTED_EDGE('',*,*,#153,.F.);
#191=ORIENTED_EDGE('',*,*,#154,.F.);
#192=ORIENTED_EDGE('',*,*,#149,.T.);
#193=ORIENTED_EDGE('',*,*,#155,.F.);
#194=ORIENTED_EDGE('',*,*,#147,.F.);
#195=ORIENTED_EDGE('',*,*,#156,.F.);
#196=ORIENTED_EDGE('',*,*,#153,.T.);
#197=ORIENTED_EDGE('',*,*,#157,.F.);
#198=ORIENTED_EDGE('',*,*,#151,.F.);
#199=ORIENTED_EDGE('',*,*,#158,.F.);
#200=ORIENTED_EDGE('',*,*,#159,.T.);
#201=ORIENTED_EDGE('',*,*,#160,.F.);
#202=ORIENTED_EDGE('',*,*,#159,.F.);
#203=ORIENTED_EDGE('',*,*,#161,.F.);
#204=ORIENTED_EDGE('',*,*,#162,.T.);
#205=ORIENTED_EDGE('',*,*,#163,.F.);
#206=ORIENTED_EDGE('',*,*,#162,.F.);
#207=ORIENTED_EDGE('',*,*,#164,.F.);
#208=ORIENTED_EDGE('',*,*,#165,.T.);
#209=ORIENTED_EDGE('',*,*,#166,.F.);
#210=ORIENTED_EDGE('',*,*,#165,.F.);
#211=ORIENTED_EDGE('',*,*,#167,.F.);
#212=ORIENTED_EDGE('',*,*,#145,.T.);
#213=ORIENTED_EDGE('',*,*,#168,.T.);
#214=ORIENTED_EDGE('',*,*,#169,.T.);
#215=ORIENTED_EDGE('',*,*,#170,.F.);
#216=ORIENTED_EDGE('',*,*,#169,.F.);
#217=ORIENTED_EDGE('',*,*,#170,.T.);
#218=ORIENTED_EDGE('',*,*,#171,.T.);
#219=ORIENTED_EDGE('',*,*,#172,.F.);
#220=ORIENTED_EDGE('',*,*,#171,.F.);
#221=ORIENTED_EDGE('',*,*,#157,.T.);
#222=ORIENTED_EDGE('',*,*,#160,.T.);
#223=ORIENTED_EDGE('',*,*,#163,.T.);
#224=ORIENTED_EDGE('',*,*,#166,.T.);
#225=ORIENTED_EDGE('',*,*,#144,.T.);
#226=ORIENTED_EDGE('',*,*,#155,.T.);
#227=ORIENTED_EDGE('',*,*,#152,.T.);
#228=ORIENTED_EDGE('',*,*,#148,.T.);
#229=ORIENTED_EDGE('',*,*,#173,.F.);
#230=ORIENTED_EDGE('',*,*,#172,.T.);
#231=ORIENTED_EDGE('',*,*,#174,.F.);
#232=ORIENTED_EDGE('',*,*,#175,.T.);
#233=ORIENTED_EDGE('',*,*,#173,.T.);
#234=ORIENTED_EDGE('',*,*,#175,.F.);
#235=ORIENTED_EDGE('',*,*,#156,.T.);
#236=ORIENTED_EDGE('',*,*,#146,.T.);
#237=ORIENTED_EDGE('',*,*,#167,.T.);
#238=ORIENTED_EDGE('',*,*,#164,.T.);
#239=ORIENTED_EDGE('',*,*,#161,.T.);
#240=ORIENTED_EDGE('',*,*,#158,.T.);
#241=ORIENTED_EDGE('',*,*,#150,.T.);
#242=ORIENTED_EDGE('',*,*,#154,.T.);
#243=ORIENTED_EDGE('',*,*,#176,.F.);
#244=ORIENTED_EDGE('',*,*,#177,.T.);
#245=ORIENTED_EDGE('',*,*,#174,.T.);
#246=ORIENTED_EDGE('',*,*,#177,.F.);
#247=ORIENTED_EDGE('',*,*,#176,.T.);
#248=ORIENTED_EDGE('',*,*,#178,.F.);
#249=ORIENTED_EDGE('',*,*,#178,.T.);
#250=ORIENTED_EDGE('',*,*,#179,.T.);
#251=ORIENTED_EDGE('',*,*,#180,.F.);
#252=ORIENTED_EDGE('',*,*,#179,.F.);
#253=ORIENTED_EDGE('',*,*,#168,.F.);
#254=ORIENTED_EDGE('',*,*,#180,.T.);
#255=CYLINDRICAL_SURFACE('',#280,5.25);
#256=CYLINDRICAL_SURFACE('',#282,5.25);
#257=CYLINDRICAL_SURFACE('',#286,5.25);
#258=CYLINDRICAL_SURFACE('',#290,5.25);
#259=CYLINDRICAL_SURFACE('',#295,40.5);
#260=CYLINDRICAL_SURFACE('',#299,41.5);
#261=CYLINDRICAL_SURFACE('',#305,34.);
#262=ADVANCED_FACE('',(#41),#255,.F.);
#263=ADVANCED_FACE('',(#42),#34,.F.);
#264=ADVANCED_FACE('',(#43),#256,.F.);
#265=ADVANCED_FACE('',(#44),#35,.F.);
#266=ADVANCED_FACE('',(#45),#257,.F.);
#267=ADVANCED_FACE('',(#46),#36,.F.);
#268=ADVANCED_FACE('',(#47),#258,.F.);
#269=ADVANCED_FACE('',(#48),#37,.F.);
#270=ADVANCED_FACE('',(#49),#20,.F.);
#271=ADVANCED_FACE('',(#50,#15),#259,.F.);
#272=ADVANCED_FACE('',(#51,#16),#38,.T.);
#273=ADVANCED_FACE('',(#52,#17),#260,.T.);
#274=ADVANCED_FACE('',(#53),#21,.T.);
#275=ADVANCED_FACE('',(#54,#18),#39,.T.);
#276=ADVANCED_FACE('',(#55),#261,.F.);
#277=ADVANCED_FACE('',(#56,#19),#40,.T.);
#278=CLOSED_SHELL('',(#262,#263,#264,#265,#266,#267,#268,#269,#270,#271,
#272,#273,#274,#275,#276,#277));
#279=AXIS2_PLACEMENT_3D('',#383,#308,#309);
#280=AXIS2_PLACEMENT_3D('',#384,#310,#311);
#281=AXIS2_PLACEMENT_3D('',#411,#314,#315);
#282=AXIS2_PLACEMENT_3D('',#420,#320,#321);
#283=AXIS2_PLACEMENT_3D('',#444,#323,#324);
#284=AXIS2_PLACEMENT_3D('',#445,#325,#326);
#285=AXIS2_PLACEMENT_3D('',#446,#327,#328);
#286=AXIS2_PLACEMENT_3D('',#447,#329,#330);
#287=AXIS2_PLACEMENT_3D('',#471,#332,#333);
#288=AXIS2_PLACEMENT_3D('',#473,#334,#335);
#289=AXIS2_PLACEMENT_3D('',#475,#336,#337);
#290=AXIS2_PLACEMENT_3D('',#477,#339,#340);
#291=AXIS2_PLACEMENT_3D('',#501,#342,#343);
#292=AXIS2_PLACEMENT_3D('',#504,#346,#347);
#293=AXIS2_PLACEMENT_3D('',#506,#348,#349);
#294=AXIS2_PLACEMENT_3D('',#509,#351,#352);
#295=AXIS2_PLACEMENT_3D('',#510,#353,#354);
#296=AXIS2_PLACEMENT_3D('',#513,#356,#357);
#297=AXIS2_PLACEMENT_3D('',#514,#358,#359);
#298=AXIS2_PLACEMENT_3D('',#516,#360,#361);
#299=AXIS2_PLACEMENT_3D('',#517,#362,#363);
#300=AXIS2_PLACEMENT_3D('',#519,#364,#365);
#301=AXIS2_PLACEMENT_3D('',#521,#367,#368);
#302=AXIS2_PLACEMENT_3D('',#523,#369,#370);
#303=AXIS2_PLACEMENT_3D('',#525,#372,#373);
#304=AXIS2_PLACEMENT_3D('',#527,#374,#375);
#305=AXIS2_PLACEMENT_3D('',#528,#376,#377);
#306=AXIS2_PLACEMENT_3D('',#531,#379,#380);
#307=AXIS2_PLACEMENT_3D('',#532,#381,#382);
#308=DIRECTION('axis',(0.,0.,1.));
#309=DIRECTION('refdir',(1.,0.,0.));
#310=DIRECTION('center_axis',(0.,-1.,0.));
#311=DIRECTION('ref_axis',(1.,0.,1.69176841847643E-15));
#312=DIRECTION('',(0.,-1.,0.));
#313=DIRECTION('',(0.,-1.,0.));
#314=DIRECTION('center_axis',(-1.,0.,0.));
#315=DIRECTION('ref_axis',(0.,-2.52531692220202E-30,-1.));
#316=DIRECTION('',(0.,0.,1.));
#317=DIRECTION('',(0.,-1.,0.));
#318=DIRECTION('',(0.,0.,-1.));
#319=DIRECTION('',(0.,-1.,0.));
#320=DIRECTION('center_axis',(0.,-1.,0.));
#321=DIRECTION('ref_axis',(1.11022302462516E-15,0.,-1.));
#322=DIRECTION('',(0.,-1.,0.));
#323=DIRECTION('center_axis',(1.7239487960018E-16,0.,-1.));
#324=DIRECTION('ref_axis',(1.,2.17797243141806E-33,1.7239487960018E-16));
#325=DIRECTION('center_axis',(-1.7239487960018E-16,0.,1.));
#326=DIRECTION('ref_axis',(1.,0.,0.));
#327=DIRECTION('center_axis',(1.7239487960018E-16,0.,-1.));
#328=DIRECTION('ref_axis',(1.,0.,0.));
#329=DIRECTION('center_axis',(0.,-1.,0.));
#330=DIRECTION('ref_axis',(-1.,0.,-8.45884209238214E-16));
#331=DIRECTION('',(0.,-1.,0.));
#332=DIRECTION('center_axis',(0.,0.,1.));
#333=DIRECTION('ref_axis',(-1.,3.72451627883588E-32,0.));
#334=DIRECTION('center_axis',(0.,0.,-1.));
#335=DIRECTION('ref_axis',(1.,0.,0.));
#336=DIRECTION('center_axis',(0.,0.,1.));
#337=DIRECTION('ref_axis',(1.,0.,0.));
#338=DIRECTION('',(0.,-1.,0.));
#339=DIRECTION('center_axis',(0.,-1.,0.));
#340=DIRECTION('ref_axis',(0.,0.,1.));
#341=DIRECTION('',(0.,-1.,0.));
#342=DIRECTION('center_axis',(1.,0.,0.));
#343=DIRECTION('ref_axis',(0.,6.01265933857703E-31,1.));
#344=DIRECTION('',(0.,0.,-1.));
#345=DIRECTION('',(0.,0.,1.));
#346=DIRECTION('center_axis',(0.,0.,-1.));
#347=DIRECTION('ref_axis',(1.,0.,0.));
#348=DIRECTION('center_axis',(0.,0.,1.));
#349=DIRECTION('ref_axis',(1.,0.,0.));
#350=DIRECTION('',(-0.707106781186549,-8.65956056235495E-17,-0.707106781186546));
#351=DIRECTION('center_axis',(0.,0.,1.));
#352=DIRECTION('ref_axis',(1.,0.,0.));
#353=DIRECTION('center_axis',(0.,0.,1.));
#354=DIRECTION('ref_axis',(1.,0.,0.));
#355=DIRECTION('',(0.,0.,-1.));
#356=DIRECTION('center_axis',(0.,0.,1.));
#357=DIRECTION('ref_axis',(1.,0.,0.));
#358=DIRECTION('center_axis',(0.,0.,-1.));
#359=DIRECTION('ref_axis',(-1.,0.,0.));
#360=DIRECTION('center_axis',(0.,0.,1.));
#361=DIRECTION('ref_axis',(1.,0.,0.));
#362=DIRECTION('center_axis',(0.,0.,1.));
#363=DIRECTION('ref_axis',(1.,0.,0.));
#364=DIRECTION('center_axis',(0.,0.,1.));
#365=DIRECTION('ref_axis',(1.,0.,0.));
#366=DIRECTION('',(0.,0.,-1.));
#367=DIRECTION('center_axis',(0.,0.,-1.));
#368=DIRECTION('ref_axis',(1.,0.,0.));
#369=DIRECTION('center_axis',(0.,0.,1.));
#370=DIRECTION('ref_axis',(1.,0.,0.));
#371=DIRECTION('',(-0.707106781186548,-8.65956056235494E-17,-0.707106781186547));
#372=DIRECTION('center_axis',(0.,0.,1.));
#373=DIRECTION('ref_axis',(1.,0.,0.));
#374=DIRECTION('center_axis',(0.,0.,1.));
#375=DIRECTION('ref_axis',(1.,0.,0.));
#376=DIRECTION('center_axis',(0.,0.,1.));
#377=DIRECTION('ref_axis',(1.,0.,0.));
#378=DIRECTION('',(0.,0.,-1.));
#379=DIRECTION('center_axis',(0.,0.,1.));
#380=DIRECTION('ref_axis',(1.,0.,0.));
#381=DIRECTION('center_axis',(0.,0.,-1.));
#382=DIRECTION('ref_axis',(-1.,0.,0.));
#383=CARTESIAN_POINT('',(0.,0.,0.));
#384=CARTESIAN_POINT('Origin',(4.34000000003562,39.93625,6.49499999999997));
#385=CARTESIAN_POINT('',(9.59000000003562,38.0943358716027,6.49499999999998));
#386=CARTESIAN_POINT('',(4.34000000003562,38.8275705404303,1.24499999999997));
#387=CARTESIAN_POINT('Ctrl Pts',(9.59000000003562,38.0943358716027,6.49499999999997));
#388=CARTESIAN_POINT('Ctrl Pts',(9.59000000003562,38.0943358716027,5.83480848065205));
#389=CARTESIAN_POINT('Ctrl Pts',(9.45785012876092,38.1224160353627,5.13179330750329));
#390=CARTESIAN_POINT('Ctrl Pts',(8.92315141735444,38.2275763172861,3.84067399149093));
#391=CARTESIAN_POINT('Ctrl Pts',(8.52069596792999,38.3036467184338,3.25244913374888));
#392=CARTESIAN_POINT('Ctrl Pts',(7.5919366255031,38.4590282653883,2.32094855451759));
#393=CARTESIAN_POINT('Ctrl Pts',(7.00204480791314,38.548739351786,1.91598423851792));
#394=CARTESIAN_POINT('Ctrl Pts',(5.70743538323059,38.7091371437073,1.37797072292354));
#395=CARTESIAN_POINT('Ctrl Pts',(5.00257494723966,38.7789329942397,1.24499999999997));
#396=CARTESIAN_POINT('Ctrl Pts',(4.34000000003562,38.8275705404303,1.24499999999997));
#397=CARTESIAN_POINT('',(9.59000000003562,39.1150377769165,6.49499999999998));
#398=CARTESIAN_POINT('',(9.59000000003562,39.93625,6.49499999999998));
#399=CARTESIAN_POINT('',(4.34000000003562,39.8301961153414,1.24499999999997));
#400=CARTESIAN_POINT('Ctrl Pts',(4.34000000003562,39.8301961153414,1.24499999999997));
#401=CARTESIAN_POINT('Ctrl Pts',(5.00241154980082,39.7827483499217,1.24499999999997));
#402=CARTESIAN_POINT('Ctrl Pts',(5.7071885294987,39.7146611981707,1.37791100777857));
#403=CARTESIAN_POINT('Ctrl Pts',(7.00174413068676,39.5582008172348,1.91581642900075));
#404=CARTESIAN_POINT('Ctrl Pts',(7.59165885061966,39.4706983430971,2.32073621238844));
#405=CARTESIAN_POINT('Ctrl Pts',(8.52058701178009,39.3191404409548,3.25227403637329));
#406=CARTESIAN_POINT('Ctrl Pts',(8.92311931424671,39.2449502091569,3.84060190552877));
#407=CARTESIAN_POINT('Ctrl Pts',(9.45787029641229,39.1424083369479,5.13183657344018));
#408=CARTESIAN_POINT('Ctrl Pts',(9.59000000003562,39.1150377769165,5.83485794158928));
#409=CARTESIAN_POINT('Ctrl Pts',(9.59000000003562,39.1150377769165,6.49499999999997));
#410=CARTESIAN_POINT('',(4.34000000003562,39.93625,1.24499999999997));
#411=CARTESIAN_POINT('Origin',(-7.34999999996437,39.93625,7.20499999999997));
#412=CARTESIAN_POINT('',(-7.34999999996437,37.9852623138445,6.49499999999997));
#413=CARTESIAN_POINT('',(-7.34999999996437,37.9852623138445,7.20499999999997));
#414=CARTESIAN_POINT('',(-7.34999999996437,37.9852623138445,5.62231315860697));
#415=CARTESIAN_POINT('',(-7.34999999996437,39.0087083307522,6.49499999999997));
#416=CARTESIAN_POINT('',(-7.34999999996437,39.93625,6.49499999999997));
#417=CARTESIAN_POINT('',(-7.34999999996437,39.0087083307522,7.20499999999997));
#418=CARTESIAN_POINT('',(-7.34999999996437,39.0087083307522,5.82941993979352));
#419=CARTESIAN_POINT('',(-7.34999999996437,39.93625,7.20499999999997));
#420=CARTESIAN_POINT('Origin',(-2.09999999996437,39.93625,6.49499999999997));
#421=CARTESIAN_POINT('',(-2.09999999996436,38.7868928077701,1.24499999999997));
#422=CARTESIAN_POINT('Ctrl Pts',(-2.09999999996437,38.7868928077701,1.24499999999997));
#423=CARTESIAN_POINT('Ctrl Pts',(-2.76304918753976,38.7297909683328,1.24499999999997));
#424=CARTESIAN_POINT('Ctrl Pts',(-3.46819821409774,38.6509305015378,1.37813890980016));
#425=CARTESIAN_POINT('Ctrl Pts',(-4.76318359770406,38.4737299273468,1.91660654548054));
#426=CARTESIAN_POINT('Ctrl Pts',(-5.35317606349567,38.3762779201302,2.32185171629742));
#427=CARTESIAN_POINT('Ctrl Pts',(-6.28137061055321,38.2087357221079,3.25346398021013));
#428=CARTESIAN_POINT('Ctrl Pts',(-6.68347019573441,38.1273774040291,3.84130472817462));
#429=CARTESIAN_POINT('Ctrl Pts',(-7.21783733566717,38.0151292661781,5.13190150318483));
#430=CARTESIAN_POINT('Ctrl Pts',(-7.34999999996437,37.9852623138445,5.83478971426939));
#431=CARTESIAN_POINT('Ctrl Pts',(-7.34999999996437,37.9852623138445,6.49499999999997));
#432=CARTESIAN_POINT('',(-2.09999999996436,39.7905046178776,1.24499999999997));
#433=CARTESIAN_POINT('',(-2.09999999996436,39.93625,1.24499999999997));
#434=CARTESIAN_POINT('Ctrl Pts',(-7.34999999996437,39.0087083307522,6.49499999999997));
#435=CARTESIAN_POINT('Ctrl Pts',(-7.34999999996437,39.0087083307522,5.83484064413364));
#436=CARTESIAN_POINT('Ctrl Pts',(-7.21785829088183,39.0378163069308,5.13194007708744));
#437=CARTESIAN_POINT('Ctrl Pts',(-6.68342277548998,39.147258605248,3.84120223687558));
#438=CARTESIAN_POINT('Ctrl Pts',(-6.28122888887033,39.2265996678443,3.25323956863367));
#439=CARTESIAN_POINT('Ctrl Pts',(-5.35283775148882,39.3900049497398,2.32159501238639));
#440=CARTESIAN_POINT('Ctrl Pts',(-4.76282684835811,39.485047176738,1.91640797069489));
#441=CARTESIAN_POINT('Ctrl Pts',(-3.46791343772424,39.6578809415695,1.378070756801));
#442=CARTESIAN_POINT('Ctrl Pts',(-2.76286218554919,39.7348042766148,1.24499999999997));
#443=CARTESIAN_POINT('Ctrl Pts',(-2.09999999996437,39.7905046178776,1.24499999999997));
#444=CARTESIAN_POINT('Origin',(-2.09999999996436,39.93625,1.24499999999997));
#445=CARTESIAN_POINT('Origin',(1.375,-1.56375000000001,1.24499999999997));
#446=CARTESIAN_POINT('Origin',(1.375,-1.56375000000001,1.24499999999997));
#447=CARTESIAN_POINT('Origin',(-2.09999999996437,39.93625,7.20499999999997));
#448=CARTESIAN_POINT('',(-2.09999999996437,38.7868928077701,12.455));
#449=CARTESIAN_POINT('Ctrl Pts',(-7.34999999996437,37.9852623138445,7.20499999999997));
#450=CARTESIAN_POINT('Ctrl Pts',(-7.34999999996437,37.9852623138445,7.86521028573055));
#451=CARTESIAN_POINT('Ctrl Pts',(-7.21783733566717,38.0151292661781,8.56809849681511));
#452=CARTESIAN_POINT('Ctrl Pts',(-6.68347019573441,38.1273774040291,9.85869527182532));
#453=CARTESIAN_POINT('Ctrl Pts',(-6.28137061055322,38.2087357221079,10.4465360197898));
#454=CARTESIAN_POINT('Ctrl Pts',(-5.35317606349567,38.3762779201302,11.3781482837025));
#455=CARTESIAN_POINT('Ctrl Pts',(-4.76318359770406,38.4737299273468,11.7833934545194));
#456=CARTESIAN_POINT('Ctrl Pts',(-3.46819821409774,38.6509305015378,12.3218610901998));
#457=CARTESIAN_POINT('Ctrl Pts',(-2.76304918753976,38.7297909683328,12.455));
#458=CARTESIAN_POINT('Ctrl Pts',(-2.09999999996437,38.7868928077701,12.455));
#459=CARTESIAN_POINT('',(-2.09999999996437,39.7905046178776,12.455));
#460=CARTESIAN_POINT('Ctrl Pts',(-2.09999999996437,39.7905046178776,12.455));
#461=CARTESIAN_POINT('Ctrl Pts',(-2.76286218554919,39.7348042766148,12.455));
#462=CARTESIAN_POINT('Ctrl Pts',(-3.46791343772424,39.6578809415695,12.3219292431989));
#463=CARTESIAN_POINT('Ctrl Pts',(-4.7628268483581,39.485047176738,11.7835920293051));
#464=CARTESIAN_POINT('Ctrl Pts',(-5.35283775148882,39.3900049497398,11.3784049876135));
#465=CARTESIAN_POINT('Ctrl Pts',(-6.28122888887033,39.2265996678443,10.4467604313663));
#466=CARTESIAN_POINT('Ctrl Pts',(-6.68342277548998,39.147258605248,9.85879776312436));
#467=CARTESIAN_POINT('Ctrl Pts',(-7.21785829088183,39.0378163069308,8.5680599229125));
#468=CARTESIAN_POINT('Ctrl Pts',(-7.34999999996437,39.0087083307522,7.8651593558663));
#469=CARTESIAN_POINT('Ctrl Pts',(-7.34999999996437,39.0087083307522,7.20499999999997));
#470=CARTESIAN_POINT('',(-2.09999999996437,39.93625,12.455));
#471=CARTESIAN_POINT('Origin',(4.34000000003562,39.93625,12.455));
#472=CARTESIAN_POINT('',(4.34000000003562,38.8275705404303,12.455));
#473=CARTESIAN_POINT('Origin',(1.375,-1.56375000000001,12.455));
#474=CARTESIAN_POINT('',(4.34000000003562,39.8301961153414,12.455));
#475=CARTESIAN_POINT('Origin',(1.375,-1.56375000000001,12.455));
#476=CARTESIAN_POINT('',(4.34000000003562,39.93625,12.455));
#477=CARTESIAN_POINT('Origin',(4.34000000003562,39.93625,7.20499999999997));
#478=CARTESIAN_POINT('',(9.59000000003562,38.0943358716027,7.20499999999995));
#479=CARTESIAN_POINT('Ctrl Pts',(4.34000000003562,38.8275705404303,12.455));
#480=CARTESIAN_POINT('Ctrl Pts',(5.00257494723966,38.7789329942397,12.455));
#481=CARTESIAN_POINT('Ctrl Pts',(5.70743538323059,38.7091371437073,12.3220292770764));
#482=CARTESIAN_POINT('Ctrl Pts',(7.00204480791314,38.548739351786,11.784015761482));
#483=CARTESIAN_POINT('Ctrl Pts',(7.5919366255031,38.4590282653883,11.3790514454824));
#484=CARTESIAN_POINT('Ctrl Pts',(8.52069596792999,38.3036467184338,10.4475508662511));
#485=CARTESIAN_POINT('Ctrl Pts',(8.92315141735444,38.2275763172861,9.85932600850902));
#486=CARTESIAN_POINT('Ctrl Pts',(9.45785012876092,38.1224160353627,8.56820669249666));
#487=CARTESIAN_POINT('Ctrl Pts',(9.59000000003562,38.0943358716027,7.8651915193479));
#488=CARTESIAN_POINT('Ctrl Pts',(9.59000000003562,38.0943358716027,7.20499999999997));
#489=CARTESIAN_POINT('',(9.59000000003562,39.1150377769165,7.20499999999995));
#490=CARTESIAN_POINT('Ctrl Pts',(9.59000000003562,39.1150377769165,7.20499999999997));
#491=CARTESIAN_POINT('Ctrl Pts',(9.59000000003562,39.1150377769165,7.86514205841066));
#492=CARTESIAN_POINT('Ctrl Pts',(9.4578702964123,39.1424083369479,8.56816342655976));
#493=CARTESIAN_POINT('Ctrl Pts',(8.92311931424671,39.2449502091569,9.85939809447117));
#494=CARTESIAN_POINT('Ctrl Pts',(8.52058701178009,39.3191404409548,10.4477259636267));
#495=CARTESIAN_POINT('Ctrl Pts',(7.59165885061966,39.4706983430971,11.3792637876115));
#496=CARTESIAN_POINT('Ctrl Pts',(7.00174413068676,39.5582008172348,11.7841835709992));
#497=CARTESIAN_POINT('Ctrl Pts',(5.7071885294987,39.7146611981707,12.3220889922214));
#498=CARTESIAN_POINT('Ctrl Pts',(5.00241154980082,39.7827483499217,12.455));
#499=CARTESIAN_POINT('Ctrl Pts',(4.34000000003562,39.8301961153414,12.455));
#500=CARTESIAN_POINT('',(9.59000000003562,39.93625,7.20499999999995));
#501=CARTESIAN_POINT('Origin',(9.59000000003562,39.93625,6.49499999999998));
#502=CARTESIAN_POINT('',(9.59000000003562,38.0943358716027,5.62231315860697));
#503=CARTESIAN_POINT('',(9.59000000003562,39.1150377769165,5.82941993979352));
#504=CARTESIAN_POINT('Origin',(1.375,-1.56375000000001,21.8910730756323));
#505=CARTESIAN_POINT('',(-37.8321067811865,-1.56375000000001,22.537519685039));
#506=CARTESIAN_POINT('Origin',(1.375,-1.56375000000001,22.537519685039));
#507=CARTESIAN_POINT('',(-39.125,-1.56375000000001,21.2446264662256));
#508=CARTESIAN_POINT('',(-38.4785533905933,-1.56375000000001,21.8910730756323));
#509=CARTESIAN_POINT('Origin',(1.375,-1.56375000000001,21.2446264662256));
#510=CARTESIAN_POINT('Origin',(1.375,-1.56375000000001,5.62231315860697));
#511=CARTESIAN_POINT('',(-39.125,-1.56375000000001,-10.0000001490116));
#512=CARTESIAN_POINT('',(-39.125,-1.56375000000001,5.62231315860697));
#513=CARTESIAN_POINT('Origin',(1.375,-1.56375000000001,-10.0000001490116));
#514=CARTESIAN_POINT('Origin',(42.875,-1.56375000000001,-10.0000001490116));
#515=CARTESIAN_POINT('',(-40.125,-1.56375000000001,-10.0000001490116));
#516=CARTESIAN_POINT('Origin',(1.375,-1.56375000000001,-10.0000001490116));
#517=CARTESIAN_POINT('Origin',(1.375,-1.56375000000001,5.82941993979352));
#518=CARTESIAN_POINT('',(-40.125,-1.56375000000001,21.6588400285987));
#519=CARTESIAN_POINT('Origin',(1.375,-1.56375000000001,21.6588400285987));
#520=CARTESIAN_POINT('',(-40.125,-1.56375000000001,5.82941993979352));
#521=CARTESIAN_POINT('Origin',(1.375,-1.56375000000001,22.5981798568188));
#522=CARTESIAN_POINT('',(-38.2463203435596,-1.56375000000001,23.537519685039));
#523=CARTESIAN_POINT('Origin',(1.375,-1.56375000000001,23.537519685039));
#524=CARTESIAN_POINT('',(-39.1856601717798,-1.56375000000001,22.5981798568188));
#525=CARTESIAN_POINT('Origin',(35.375,-1.56375000000001,23.537519685039));
#526=CARTESIAN_POINT('',(-32.625,-1.56375000000001,23.537519685039));
#527=CARTESIAN_POINT('Origin',(1.375,-1.56375000000001,23.537519685039));
#528=CARTESIAN_POINT('Origin',(1.375,-1.56375000000001,23.037519685039));
#529=CARTESIAN_POINT('',(-32.625,-1.56375000000001,22.537519685039));
#530=CARTESIAN_POINT('',(-32.625,-1.56375000000001,23.037519685039));
#531=CARTESIAN_POINT('Origin',(1.375,-1.56375000000001,22.537519685039));
#532=CARTESIAN_POINT('Origin',(40.5821067811865,-1.56375000000001,22.537519685039));
#533=UNCERTAINTY_MEASURE_WITH_UNIT(LENGTH_MEASURE(0.01),#537,
'DISTANCE_ACCURACY_VALUE',
'Maximum model space distance between geometric entities at asserted c
onnectivities');
#534=UNCERTAINTY_MEASURE_WITH_UNIT(LENGTH_MEASURE(0.01),#537,
'DISTANCE_ACCURACY_VALUE',
'Maximum model space distance between geometric entities at asserted c
onnectivities');
#535=(
GEOMETRIC_REPRESENTATION_CONTEXT(3)
GLOBAL_UNCERTAINTY_ASSIGNED_CONTEXT((#533))
GLOBAL_UNIT_ASSIGNED_CONTEXT((#537,#538,#539))
REPRESENTATION_CONTEXT('','3D')
);
#536=(
GEOMETRIC_REPRESENTATION_CONTEXT(3)
GLOBAL_UNCERTAINTY_ASSIGNED_CONTEXT((#534))
GLOBAL_UNIT_ASSIGNED_CONTEXT((#537,#538,#539))
REPRESENTATION_CONTEXT('','3D')
);
#537=(
LENGTH_UNIT()
NAMED_UNIT(*)
SI_UNIT(.MILLI.,.METRE.)
);
#538=(
NAMED_UNIT(*)
PLANE_ANGLE_UNIT()
SI_UNIT($,.RADIAN.)
);
#539=(
NAMED_UNIT(*)
SI_UNIT($,.STERADIAN.)
SOLID_ANGLE_UNIT()
);
#540=SHAPE_DEFINITION_REPRESENTATION(#541,#542);
#541=PRODUCT_DEFINITION_SHAPE('',$,#544);
#542=SHAPE_REPRESENTATION('',(#279),#535);
#543=PRODUCT_DEFINITION_CONTEXT('part definition',#548,'design');
#544=PRODUCT_DEFINITION('1x1 1','Drink! v10',#545,#543);
#545=PRODUCT_DEFINITION_FORMATION('',$,#550);
#546=PRODUCT_RELATED_PRODUCT_CATEGORY('Drink! v10','Drink! v10',(#550));
#547=APPLICATION_PROTOCOL_DEFINITION('international standard',
'automotive_design',2009,#548);
#548=APPLICATION_CONTEXT(
'Core Data for Automotive Mechanical Design Process');
#549=PRODUCT_CONTEXT('part definition',#548,'mechanical');
#550=PRODUCT('1x1 1','Drink! v10','KiCad electronic assembly',(#549));
#551=PRESENTATION_STYLE_ASSIGNMENT((#560));
#552=PRESENTATION_STYLE_ASSIGNMENT((#561));
#553=PRESENTATION_STYLE_ASSIGNMENT((#562));
#554=PRESENTATION_STYLE_ASSIGNMENT((#563));
#555=PRESENTATION_STYLE_ASSIGNMENT((#564));
#556=PRESENTATION_STYLE_ASSIGNMENT((#565));
#557=PRESENTATION_STYLE_ASSIGNMENT((#566));
#558=PRESENTATION_STYLE_ASSIGNMENT((#567));
#559=PRESENTATION_STYLE_ASSIGNMENT((#568));
#560=SURFACE_STYLE_USAGE(.BOTH.,#569);
#561=SURFACE_STYLE_USAGE(.BOTH.,#570);
#562=SURFACE_STYLE_USAGE(.BOTH.,#571);
#563=SURFACE_STYLE_USAGE(.BOTH.,#572);
#564=SURFACE_STYLE_USAGE(.BOTH.,#573);
#565=SURFACE_STYLE_USAGE(.BOTH.,#574);
#566=SURFACE_STYLE_USAGE(.BOTH.,#575);
#567=SURFACE_STYLE_USAGE(.BOTH.,#576);
#568=SURFACE_STYLE_USAGE(.BOTH.,#577);
#569=SURFACE_SIDE_STYLE('',(#578));
#570=SURFACE_SIDE_STYLE('',(#579));
#571=SURFACE_SIDE_STYLE('',(#580));
#572=SURFACE_SIDE_STYLE('',(#581));
#573=SURFACE_SIDE_STYLE('',(#582));
#574=SURFACE_SIDE_STYLE('',(#583));
#575=SURFACE_SIDE_STYLE('',(#584));
#576=SURFACE_SIDE_STYLE('',(#585));
#577=SURFACE_SIDE_STYLE('',(#586));
#578=SURFACE_STYLE_FILL_AREA(#587);
#579=SURFACE_STYLE_FILL_AREA(#588);
#580=SURFACE_STYLE_FILL_AREA(#589);
#581=SURFACE_STYLE_FILL_AREA(#590);
#582=SURFACE_STYLE_FILL_AREA(#591);
#583=SURFACE_STYLE_FILL_AREA(#592);
#584=SURFACE_STYLE_FILL_AREA(#593);
#585=SURFACE_STYLE_FILL_AREA(#594);
#586=SURFACE_STYLE_FILL_AREA(#595);
#587=FILL_AREA_STYLE('Steel - Satin',(#596));
#588=FILL_AREA_STYLE('Paint - Enamel Glossy (White)',(#597));
#589=FILL_AREA_STYLE('ABS (White)',(#598));
#590=FILL_AREA_STYLE('ABS (White)',(#599));
#591=FILL_AREA_STYLE('Opaque(25,25,25)',(#600));
#592=FILL_AREA_STYLE('Opaque(255,255,255)',(#601));
#593=FILL_AREA_STYLE('Opaque(219,188,126)',(#602));
#594=FILL_AREA_STYLE('Opaque(136,60,0)',(#603));
#595=FILL_AREA_STYLE('Opaque(210,209,199)',(#604));
#596=FILL_AREA_STYLE_COLOUR('Steel - Satin',#605);
#597=FILL_AREA_STYLE_COLOUR('Paint - Enamel Glossy (White)',#606);
#598=FILL_AREA_STYLE_COLOUR('ABS (White)',#607);
#599=FILL_AREA_STYLE_COLOUR('ABS (White)',#608);
#600=FILL_AREA_STYLE_COLOUR('Opaque(25,25,25)',#609);
#601=FILL_AREA_STYLE_COLOUR('Opaque(255,255,255)',#610);
#602=FILL_AREA_STYLE_COLOUR('Opaque(219,188,126)',#611);
#603=FILL_AREA_STYLE_COLOUR('Opaque(136,60,0)',#612);
#604=FILL_AREA_STYLE_COLOUR('Opaque(210,209,199)',#613);
#605=COLOUR_RGB('Steel - Satin',0.627450980392157,0.627450980392157,0.627450980392157);
#606=COLOUR_RGB('Paint - Enamel Glossy (White)',0.964705882352941,0.964705882352941,
0.952941176470588);
#607=COLOUR_RGB('ABS (White)',0.72156862745098,0.454901960784314,0.168627450980392);
#608=COLOUR_RGB('ABS (White)',0.274509803921569,0.796078431372549,0.823529411764706);
#609=COLOUR_RGB('Opaque(25,25,25)',0.0980392156862745,0.0980392156862745,
0.0980392156862745);
#610=COLOUR_RGB('Opaque(255,255,255)',1.,1.,1.);
#611=COLOUR_RGB('Opaque(219,188,126)',0.858823529411765,0.737254901960784,
0.494117647058824);
#612=COLOUR_RGB('Opaque(136,60,0)',0.533333333333333,0.235294117647059,
0.);
#613=COLOUR_RGB('Opaque(210,209,199)',0.823529411764706,0.819607843137255,
0.780392156862745);
ENDSEC;
END-ISO-10303-21;
